<svg id="Capa_1" data-name="Capa 1" xmlns="http://www.w3.org/2000/svg" xmlns:xlink="http://www.w3.org/1999/xlink" viewBox="0 0 209.58 175.42"><defs><style>.cls-1,.cls-18{fill:#fff;}.cls-2{fill:#63462a;}.cls-3{fill:#282828;}.cls-4{fill:#020202;}.cls-5{fill:#ee7453;}.cls-6{fill:#d8b39a;}.cls-7{fill:#b09481;}.cls-8{fill:#ef7963;}.cls-9{fill:#f5a8a0;}.cls-10{fill:none;stroke:#44362c;stroke-width:2px;}.cls-10,.cls-18{stroke-miterlimit:10;}.cls-11{fill:#345089;}.cls-12{fill:#4867af;}.cls-13{fill:#c69b7d;}.cls-14{fill:#261f1a;}.cls-15{fill:#a47f65;}.cls-16{fill:#44362c;}.cls-17{clip-path:url(#clip-path);}.cls-18{stroke:#9c9b9b;}.cls-19{font-size:14px;fill:#1d1d1b;font-family:Helvetica-Bold, Helvetica;font-weight:700;}</style><clipPath id="clip-path" transform="translate(-95.21 -16.25)"><path class="cls-1" d="M138.85,118s-1.76-4.12.76-5.67,4.74,1.1,4.74,1.1a11.83,11.83,0,0,0,6.15,3.39c4.43,1.13,6.93-2.4,7.66-2.45,1.2-1.35,4.07-.8,4.72.06a3.61,3.61,0,0,1,.23,4.18,13.36,13.36,0,0,1-12.17,6.79C143.11,125,139.41,120.16,138.85,118Z"/></clipPath></defs><path class="cls-2" d="M218.83,91.37s-9.87,20-10.76,34c-.45,7.05-4.5,13.39-4.5,13.39s-11.23,12.61,0,21.27c0,0,1.07,11.41,11.86,12.05,0,0,7.77-4.33,12.28.79s11.16,8.12,15.42,3.87,10.45-4.13,12.84-3.06,12.22,1.15,13.38-10c0,0,.68-13.36,9-17.61,6-3.09,8.55-25.61-2.44-27.1s-57.06-27.55-57.06-27.55" transform="translate(-95.21 -16.25)"/><path class="cls-3" d="M267.8,171.69l2.74,4.51-.26,1.36s13.83,8-.43,12.92c0,0-7.33,1.89-15.38-3.49,0,0-.81,2.59-2.73,3.24,0,0-3.58-3.82.91-8.91,0,0,7.28,4.52,13.77,4.19,0,0,3.1.13,3.4-2.24s-4.32-2.79-4.32-2.79-12.55-1.14-14.14-6.3S267.8,171.69,267.8,171.69Z" transform="translate(-95.21 -16.25)"/><path class="cls-4" d="M253.67,171.18l2.74,4.51-.26,1.36s13.82,8-.43,12.92c0,0-7.33,1.88-15.39-3.49,0,0-.8,2.59-2.73,3.24,0,0-3.58-3.82.92-8.91,0,0,7.28,4.52,13.76,4.19,0,0,3.11.13,3.41-2.24s-4.33-2.79-4.33-2.79a12,12,0,0,1-6.23-7.1C243.53,167.71,253.67,171.18,253.67,171.18Z" transform="translate(-95.21 -16.25)"/><path class="cls-4" d="M271.4,173.94s1.86,7.35-15.9,6.51c0,0-19.55-.7-13.05-8.46S271.4,173.94,271.4,173.94Z" transform="translate(-95.21 -16.25)"/><path class="cls-5" d="M263.68,148.81s24.46,1.63,30.21-16.82c0,0,4.57-10-7.75-19.08,0,0,7.37-2.8,6.39-8.67,0,0,20.76,13.57,8.26,35,0,0-5.75,15.06-32.07,16.06,0,0,2,10,1.63,15.38l2.64,4.06s-12.31,7.28-34-.82a67.09,67.09,0,0,0,2.8-15.76s-26.13,6.78-37.15-12.93c0,0-10-14.32,3.95-30.18,0,0,1.91,6.23,8.05,6,0,0-9.85,8.65-4.4,19.77s23.43,13.54,30.31,11.19S263.68,148.81,263.68,148.81Z" transform="translate(-95.21 -16.25)"/><path class="cls-6" d="M286.46,112.84s6.62-2.47,6.39-8.66c0,0-1.09-11.23-7.09-14.34,0,0-6.42-1.78-14.19,3.11a17.93,17.93,0,0,0,3.76,12.9A17.51,17.51,0,0,0,286.46,112.84Z" transform="translate(-95.21 -16.25)"/><polygon class="cls-6" points="189.15 101.78 186.55 90.02 185.91 80.85 134.4 82.32 123.05 98.16 128.6 116.31 129.31 118.4 187.76 106.41 189.15 101.78"/><path class="cls-6" d="M224.53,133.68s-6.06-.56-4.88,7.27c0,0,2.35,9.2,12.27,6.82,0,0,4.88-.87,4.39-4.21l-1.65-9.18Z" transform="translate(-95.21 -16.25)"/><path class="cls-6" d="M284,117.21s6.28.7,5.29,8.14-6.93,6.15-6.93,6.15l-6-9.83Z" transform="translate(-95.21 -16.25)"/><circle class="cls-6" cx="158.34" cy="107.15" r="29.96"/><path class="cls-2" d="M284.26,119.45l-3.5-12.65A25.5,25.5,0,0,1,269,97s-6.44,12.45-14.18,14c0,0-3.8-2.27-3.13-12.9,0,0-7.3,16.85-22.81,17,0,0,3.62,16.5-5.69,20.41,0,0-21.28-24.52-1.86-49,0,0,20.34-21.68,50.42-6.49C271.79,80,291.28,90.57,284.26,119.45Z" transform="translate(-95.21 -16.25)"/><circle class="cls-7" cx="169.7" cy="113.93" r="2.53"/><path class="cls-8" d="M260,137.68s-13.48-2.62-14.41,7.32,17.27,4.89,17.27,4.89,15.47-3.87,6.47-15.26C269.33,134.63,265.32,138.5,260,137.68Z" transform="translate(-95.21 -16.25)"/><path class="cls-9" d="M265.13,149.19s-3.09-11.55-19.55-3.92C245.58,145.27,243.89,156.4,265.13,149.19Z" transform="translate(-95.21 -16.25)"/><path class="cls-10" d="M277.54,118.63s-4-3.11-8.77,4a.13.13,0,0,0,.15.19c1.45-.62,6.61-2.54,9.19.21" transform="translate(-95.21 -16.25)"/><path class="cls-10" d="M243.85,126.33s3.62-4.38,9.24.54c0,0,0,.09,0,.08a9,9,0,0,0-8.4,3.29" transform="translate(-95.21 -16.25)"/><path class="cls-6" d="M208.64,115.05s-1.64-7.2,3.48-9.68c0,0-2.31-10.32,4.54-10.51,0,0,11.67-1.29,13.81,10.94,0,0,.24,2.58-4.36,2,0,0-1.69,13.59-9.42,13.3C216.69,121.1,210.32,121.23,208.64,115.05Z" transform="translate(-95.21 -16.25)"/><path class="cls-11" d="M190.79,107.24s-17.25,9.33-29.37,18l-.07,7.6,34.44-19.25Z" transform="translate(-95.21 -16.25)"/><path class="cls-4" d="M148.68,155.9s6.56,1,9,13.27c0,0,1.58,5.1-2.16,16.53,0,0,3.22,1.11,4.31,2.76,0,0-.8,3.53-11.61,2.55,0,0-2.16-.46-.8-3.93a64.47,64.47,0,0,0,3.45-10.9,19.92,19.92,0,0,0-10.4-20.66Z" transform="translate(-95.21 -16.25)"/><path class="cls-4" d="M133.87,156s6.11,2.62,5.51,15.07c0,0,.29,5.33-6.12,15.5,0,0,2.85,1.87,3.51,3.73,0,0-1.63,3.23-11.88-.35,0,0-2-1,.17-4a64.85,64.85,0,0,0,6-9.73A19.92,19.92,0,0,0,126,153.68Z" transform="translate(-95.21 -16.25)"/><path class="cls-4" d="M158.47,156.15s1,8.2-18.11,4.81c0,0-21.05-3.48-12.93-11S158.47,156.15,158.47,156.15Z" transform="translate(-95.21 -16.25)"/><path class="cls-12" d="M162.15,125.28v31.15s-16.35,8-38.24-4.94L137.48,120Z" transform="translate(-95.21 -16.25)"/><path class="cls-11" d="M103.44,110,131,131.61a4.4,4.4,0,0,0,4.88.59c2.71-1.41-.24-5.19-1.65-6.22s-25.83-23.91-25.83-23.91l-5.11,5.18Z" transform="translate(-95.21 -16.25)"/><path class="cls-13" d="M105.92,99.79s-7.16-6.56-10-1.6c0,0-3.73,8.3,6.15,11.84,0,0,6.16,3.13,9-2.75a47.46,47.46,0,0,0-.51-6,24.18,24.18,0,0,1,.35-4.54s-2.42-3.71-4.36-.47Z" transform="translate(-95.21 -16.25)"/><path class="cls-13" d="M191.6,103.44s6-7.77,12-2c4.71,4.52-2.21,9.18-2.21,9.18s-3.17,3.67-5.64,4.18c0,0-5.3,1.07-6.94-5a28.68,28.68,0,0,0-2.67-7.24s.79-4.21,4.07-1.41Z" transform="translate(-95.21 -16.25)"/><polygon class="cls-13" points="84.65 81.3 83.57 69.32 78.94 53.44 29.26 47.82 19.66 69.29 22.84 87.97 23.28 90.13 82.69 85.7 84.65 81.3"/><circle class="cls-13" cx="53.9" cy="83.94" r="29.91"/><path class="cls-14" d="M172.56,73.59s-24.47-8.65-45.72,3.34c0,0,.5,18.64-6.55,20.75,0,0,1,6.38,2.47,8.57s-4.81.58-4.81.58S98.72,64.45,140.7,54.19c0,0,44.83-11.56,39.89,43.49L177.8,99.6l-.8-7.15S174,89.94,172.56,73.59Z" transform="translate(-95.21 -16.25)"/><path class="cls-13" d="M120.1,105.19s-7.41-1.1-7.24,6.81c0,0,1.16,9.41,11.28,8.31,0,0,4.94-.23,4.89-3.6l-.47-9.3Z" transform="translate(-95.21 -16.25)"/><path class="cls-13" d="M178.89,97a1.92,1.92,0,0,1,1.54,0c1.61.72,4.83,2.9,3.36,8.43-1.93,7.24-7.65,5.2-7.65,5.2l-4.7-10.49Z" transform="translate(-95.21 -16.25)"/><circle class="cls-15" cx="59.01" cy="88.94" r="3.39"/><ellipse class="cls-16" cx="41.11" cy="82.69" rx="4.38" ry="6.48"/><ellipse class="cls-16" cx="70.58" cy="80.78" rx="4.38" ry="6.48"/><ellipse class="cls-1" cx="37.85" cy="79.1" rx="1.57" ry="2.33"/><ellipse class="cls-1" cx="67.33" cy="77.02" rx="1.57" ry="2.33"/><path class="cls-1" d="M138.85,118s-1.76-4.12.76-5.67,4.74,1.1,4.74,1.1a11.83,11.83,0,0,0,6.15,3.39c4.43,1.13,6.93-2.4,7.66-2.45,1.2-1.35,4.07-.8,4.72.06a3.61,3.61,0,0,1,.23,4.18,13.36,13.36,0,0,1-12.17,6.79C143.11,125,139.41,120.16,138.85,118Z" transform="translate(-95.21 -16.25)"/><g class="cls-17"><line class="cls-18" x1="50.03" y1="96.35" x2="42.22" y2="103.23"/><line class="cls-18" x1="53.46" y1="98.83" x2="47.81" y2="108.58"/><line class="cls-18" x1="56.91" y1="98.63" x2="59.9" y2="111.21"/><line class="cls-18" x1="60.66" y1="97" x2="68.29" y2="105.11"/></g><text class="cls-19" transform="translate(25.83 12.04)">The Requesting Partner</text></svg>